<?xml version="1.0" encoding="UTF-8"?>
<svg width="24px" height="24px" viewBox="0 0 24 24" version="1.1" xmlns="http://www.w3.org/2000/svg" xmlns:xlink="http://www.w3.org/1999/xlink">
    <title>canoe</title>
    <g id="canoe" stroke="none" stroke-width="1" fill="none" fill-rule="evenodd">
        <rect id="Combined-Shape" fill="#003B93" x="0" y="0" width="24" height="24" rx="5.87368421"></rect>
        <path d="M6,17.5 L7.5,18.5 L8.5,18.5 L10,17.5 L11,17.5 L12.5,18.5 L13.5,18.5 L15,17.5 L16,17.5 L17.5,18.5 L18.5,18.5 L20,17.5 L20,19.5 L18.5,20.5 L17.5,20.5 L16,19.5 L15,19.5 L13.5,20.5 L12.5,20.5 L11,19.5 L10,19.5 L8.5,20.5 L7.5,20.5 L6,19.5 L5,19.5 L4,20.1666622 L4,18.1666622 L5,17.5 L6,17.5 Z M13.3,7.62105263 C13.965,6.48421053 15.485,7.33684211 14.82,8.56842105 L13.11,11.1263158 C13.11,11.1263158 12.635,11.9789474 11.685,11.4105263 L10.07,10.4631579 L8.535,12.5684211 L9.105,12.9473684 L15.42,12.9473684 C15.42,12.9473684 17.215,12.7052632 17.5,11 C19.5,12 20.5,13.1666667 20.5,14.5 C20.5,15.0946341 20.3316029,15.5924964 20.0924465,16.0010563 L20,16 L18.5,17 L17.5,17 L16,16 L15,16 L13.5,17 L12.5,17 L11,16 L10,16 L8.5,17 L7.5,17 L6,16 L5,16 L4,16.6666622 L4,13 L6.84,8.66315789 C6.84,8.66315789 7.6,6.95789474 9.5,8 L12.16,9.42105263 Z M10.68,6.86 C11.6078384,6.86 12.36,6.10783838 12.36,5.18 C12.36,4.25216162 11.6078384,3.5 10.68,3.5 C9.75216162,3.5 9,4.25216162 9,5.18 C9,6.10783838 9.75216162,6.86 10.68,6.86 Z" id="Combined-Shape" fill="#FFFFFF" fill-rule="nonzero"></path>
    </g>
</svg>