<?xml version="1.0" encoding="UTF-8"?>
<svg width="21px" height="23px" viewBox="0 0 21 23" version="1.1" xmlns="http://www.w3.org/2000/svg" xmlns:xlink="http://www.w3.org/1999/xlink">
    <title>beaver_dam</title>
    <defs>
        <path d="M7.4,15.8001135 L14.6,2.60011349" id="path-1"></path>
        <path d="M3.8,15.8001135 L11,2.60011349" id="path-2"></path>
        <path d="M6.2,18.2001135 L13.4,5.00011349" id="path-3"></path>
        <path d="M6.2,15.8001135 L13.4,2.60011349" id="path-4"></path>
        <path d="M7.4,18.2001135 L14.6,5.00011349" id="path-5"></path>
        <path d="M12.2,18.6396893 L17.6761323,8.60011349" id="path-6"></path>
        <path d="M8.6,20.6001135 L15.8,7.40011349" id="path-7"></path>
        <path d="M11.2537744,20.3348604 L17,9.80011349" id="path-8"></path>
    </defs>
    <g id="beaver_dam" stroke="none" stroke-width="1" fill="none" fill-rule="evenodd">
        <path d="M10.5485339,1.06512868 C10.9413707,0.949588428 11.3782847,0.983910386 11.7661634,1.19548057 C11.9116179,1.27481939 12.0398492,1.37345049 12.1494131,1.48646365 L12.199,1.543 L12.2863502,1.45070041 C12.4370344,1.30461522 12.6132867,1.19171653 12.803468,1.11542758 L12.9485339,1.06512868 C14.9236387,1.36260987 14.8447954,1.84200345 14.9349848,2.14864737 C15.0505251,2.54148424 15.0162031,2.97839823 14.8045965,3.36634367 L14.78,3.41 L14.9140234,3.43079652 C15.0169137,3.45141782 15.1189216,3.48247526 15.2185922,3.52439677 L15.3661634,3.59548057 C15.7540421,3.80705075 16.0194445,4.1558105 16.1349848,4.54864737 C16.2505251,4.94148424 16.2162031,5.37839823 16.0045094,5.76650321 L15.98,5.81 L16.1140234,5.83079652 C16.2169137,5.85141782 16.3189216,5.88247526 16.4185922,5.92439677 L16.5661634,5.99548057 C16.9540421,6.20705075 17.2194445,6.5558105 17.3349848,6.94864737 C17.4505251,7.34148424 17.4162031,7.77839823 17.2045525,8.16642435 L17.18,8.21 L17.3140234,8.23079652 C17.4169137,8.25141782 17.5189216,8.28247526 17.6185922,8.32439677 L17.7661634,8.39548057 C18.1540421,8.60705075 18.4194445,8.9558105 18.5349848,9.34864737 C18.6505251,9.74148424 18.6162031,10.1783982 18.4045748,10.5663834 L17.7733922,11.7232177 C18.4467445,11.9974422 19.1228508,12.3813263 19.8,12.8791768 L19.7999995,18.8011125 L19.7982654,20.5369526 L17.3026916,22.2001135 L15.4972244,22.2001135 L13.6972244,21.0001135 L13.1036729,21.0001135 L12.2527463,21.5694202 L11.3013574,22.2001135 L9.49735838,22.2001135 L9.26,22.042 L9.1548843,22.0889345 C8.76639961,22.2411599 8.3526979,22.2351166 7.97406313,22.0728959 L7.83383659,22.0047464 C7.44595792,21.7931762 7.18055545,21.4444165 7.0650152,21.0515796 L7.082,21.099 L6.98869546,21.0761669 L5.30277564,22.2001135 L3.49722436,22.2001135 L1,20.5352972 L1,7.15374745 C1,6.70543596 1.11545665,6.26467943 1.3352464,5.87394211 C1.68865488,5.24566035 2.26326772,4.82010507 2.90659887,4.63997235 C3.42126379,4.49586617 3.97990843,4.50883043 4.50445995,4.70072553 L4.621,4.749 L4.63327203,4.67545562 C4.69800198,4.36337076 4.85556243,4.07228004 5.09222086,3.84540218 L5.217078,3.73751441 C5.52117099,3.55778548 5.78713172,3.46563256 6.02527408,3.43204897 L6.031,3.431 L5.99536708,3.3662769 C5.83331589,3.06918305 5.77535289,2.74333203 5.80891944,2.43055876 L5.83327203,2.27545562 C5.90879031,1.91135662 6.11066121,1.57583297 6.417078,1.33751441 C6.96444539,1.01400234 7.38826423,0.97423653 7.74868521,1.04905007 C8.2006783,1.14287147 8.5787273,1.41978977 8.80462282,1.83393157 L9.2,2.55875338 L9.59536708,1.83395008 C9.80693727,1.44607141 10.155697,1.18066894 10.5485339,1.06512868 Z" id="Combined-Shape" stroke="#FFFFFF" stroke-width="2" stroke-linejoin="round" fill-rule="nonzero"></path>
        <g id="Line-4-Copy-15" stroke-linecap="round" transform="translate(11, 9.2001) scale(-1, 1) translate(-11, -9.2001)">
            <use stroke="#FFFFFF" stroke-width="3" xlink:href="#path-1"></use>
            <use stroke="#345A74" stroke-width="1.2" xlink:href="#path-1"></use>
        </g>
        <g id="Line-4-Copy-14" stroke-linecap="round">
            <use stroke="#FFFFFF" stroke-width="3" xlink:href="#path-2"></use>
            <use stroke="#345A74" stroke-width="1.2" xlink:href="#path-2"></use>
        </g>
        <g id="Line-4-Copy-13" stroke-linecap="round" transform="translate(9.8, 11.6001) scale(-1, 1) translate(-9.8, -11.6001)">
            <use stroke="#FFFFFF" stroke-width="3" xlink:href="#path-3"></use>
            <use stroke="#345A74" stroke-width="1.2" xlink:href="#path-3"></use>
        </g>
        <g id="Line-4-Copy-12" stroke-linecap="round">
            <use stroke="#FFFFFF" stroke-width="3" xlink:href="#path-4"></use>
            <use stroke="#345A74" stroke-width="1.2" xlink:href="#path-4"></use>
        </g>
        <g id="Line-4-Copy-11" stroke-linecap="round">
            <use stroke="#FFFFFF" stroke-width="3" xlink:href="#path-5"></use>
            <use stroke="#345A74" stroke-width="1.2" xlink:href="#path-5"></use>
        </g>
        <g id="Line-4-Copy-10" stroke-linecap="round" transform="translate(14.9381, 13.6199) scale(1, -1) rotate(0) translate(-14.9381, -13.6199)">
            <use stroke="#FFFFFF" stroke-width="3" xlink:href="#path-6"></use>
            <use stroke="#345A74" stroke-width="1.2" xlink:href="#path-6"></use>
        </g>
        <g id="Line-4-Copy-9" stroke-linecap="round">
            <use stroke="#FFFFFF" stroke-width="3" xlink:href="#path-7"></use>
            <use stroke="#345A74" stroke-width="1.2" xlink:href="#path-7"></use>
        </g>
        <g id="Line-4-Copy-8" stroke-linecap="round" transform="translate(14.1269, 15.0675) scale(-1, -1) translate(-14.1269, -15.0675)">
            <use stroke="#FFFFFF" stroke-width="3" xlink:href="#path-8"></use>
            <use stroke="#345A74" stroke-width="1.2" xlink:href="#path-8"></use>
        </g>
        <path d="M3.05489533,5.16960256 C3.56268229,5.02742221 4.12470922,5.07895605 4.62061756,5.35790449 C5.39557221,5.79381649 5.92804768,6.49762213 6.16446263,7.2897848 C6.40087758,8.08194747 6.34123201,8.96246716 5.93190108,9.75189108 L3.9199973,13.6299991 C5.04159156,13.1763433 6.20169565,12.9501135 7.4,12.9501135 C9.20260868,12.9501135 10.6549439,13.1292659 11.7592429,13.4772704 C11.986102,13.2273754 12.2173219,13.0053062 12.4525868,12.8107142 C13.16818,11.1225909 13.4516823,11.1623941 13.6575142,11.2975647 L13.705604,11.3310008 L13.7518001,11.3630838 C13.7670041,11.3729954 13.782074,11.3818455 13.7971912,11.3887985 C13.9718286,11.4691203 14.1275624,11.590543 14.2490072,11.745956 C14.4810982,11.7782286 14.6857923,11.7672124 14.8838152,11.7588664 C16.5666832,11.7491211 17.8942333,12.2187762 19.25,13.1617161 L19.25,19.2501135 L1.55,19.2501135 L1.55,7.15374745 C1.55,6.79989123 1.64113095,6.45199821 1.81461294,6.14358579 C2.09356138,5.64767745 2.54710837,5.31178291 3.05489533,5.16960256 Z" id="Rectangle-Copy-7" stroke="#FFFFFF" stroke-width="0.9" fill="#345A74" stroke-linejoin="round"></path>
        <path d="M15.8,13.4001135 C16.179236,13.4001135 16.5379102,13.5725012 16.774817,13.8686348 L17.0300193,14.1876376 C17.1504717,14.3382031 17.1260602,14.5579065 16.9754947,14.678359 C16.8980284,14.7403319 16.7978554,14.7664227 16.7,14.7501135 L16.4616932,14.7103957 C16.0459633,14.6411074 15.6884846,14.3770826 15.5,14.0001135 L15.4683282,13.9367698 C15.3767395,13.7535925 15.4509868,13.5308507 15.6341641,13.439262 C15.6856545,13.4135168 15.742432,13.4001135 15.8,13.4001135 Z" id="Rectangle" fill="#FFFFFF"></path>
        <path d="M5.18166538,17.0001135 L6.98166538,18.2001135 L7.81833462,18.2001135 L9.61833462,17.0001135 L11.1816654,17.0001135 L12.9816654,18.2001135 L13.8183346,18.2001135 L15.6183346,17.0001135 L17.181615,17.0001135 L19.3988,18.4777438 L19.3988,22.3198163 L16.818385,20.6001135 L15.9816654,20.6001135 L14.1816654,21.8001135 L12.6183346,21.8001135 L10.8183346,20.6001135 L9.98166538,20.6001135 L8.18166538,21.8001135 L6.61833462,21.8001135 L4.81833462,20.6001135 L3.98166538,20.6001135 L1.4,22.3212237 L1.4,18.4790032 L3.61833462,17.0001135 L5.18166538,17.0001135 Z" id="Path-Copy" stroke="#FFFFFF" stroke-width="1.2" fill="#345A74" fill-rule="nonzero" transform="translate(10.3994, 19.4001) scale(1, -1) translate(-10.3994, -19.4001)"></path>
    </g>
</svg>