<?xml version="1.0" encoding="UTF-8"?>
<svg width="32px" height="32px" viewBox="0 0 32 32" version="1.1" xmlns="http://www.w3.org/2000/svg" xmlns:xlink="http://www.w3.org/1999/xlink">
    <title>bird_refuge</title>
    <g id="bird_refuge" stroke="none" stroke-width="1" fill="none" fill-rule="evenodd">
        <rect id="Rectangle" stroke="#FFFFFF" stroke-width="2" fill="#005908" x="1" y="1" width="30" height="30" rx="5.87368441"></rect>
        <path d="M8.16967176,20.9886441 L13.85304,16.7261179 C13.0242155,16.3709074 12.4913997,16.0748987 12.2545927,15.8380917 C11.8993822,15.4828811 11.7809787,12.9964075 11.5441716,11.5755655 L11.3963537,11.4733684 C10.2090682,10.6146705 5.53037502,6.57783614 6.03840867,6.0698025 C6.57122444,5.53698672 13.4978295,8.20106559 14.3858558,9.08909187 C14.9778733,9.6811094 15.5106891,10.8059427 15.9843031,12.4635918 C17.1937103,12.1337534 17.9947463,11.8039151 18.387411,11.4740768 L18.4707767,11.3979602 C18.8259872,11.0427497 19.5364082,10.8059427 20.6020398,10.6875392 L22.3780924,9.62190765 L21.3124608,11.3979602 C21.2039243,12.3747891 20.9958959,13.0531426 20.6883757,13.4330205 L20.6020398,13.5292233 C20.2468293,13.8844338 19.8916187,14.7132584 19.5364082,16.0156969 C21.1940573,16.4893109 22.3188906,17.0221267 22.9109081,17.6141442 C23.7989344,18.5021705 26.4630133,25.4287756 25.9301975,25.9615913 C25.3973817,26.4944071 20.9830951,21.3221319 20.4244345,20.4558284 C19.0035925,20.2190213 16.5171189,20.1006178 16.1619083,19.7454073 C15.9251013,19.5086003 15.6290926,18.9757845 15.2738821,18.14696 L11.0113559,23.8303282 C10.0641278,23.8303282 9.35370681,23.5935212 8.88009279,23.1199072 C8.40647877,22.6462932 8.16967176,21.9358722 8.16967176,20.9886441 Z" id="Path" fill="#FFFFFF"></path>
    </g>
</svg>