<?xml version="1.0" encoding="UTF-8"?>
<svg width="18px" height="24px" viewBox="0 0 18 24" version="1.1" xmlns="http://www.w3.org/2000/svg" xmlns:xlink="http://www.w3.org/1999/xlink">
    <title>cairn</title>
    <g id="cairn" stroke="none" stroke-width="1" fill="none" fill-rule="evenodd">
        <path d="M7.68556588,22 C6.91026144,22 2,21.837037 2,20.3851852 C2,18.237037 3.2491016,17.6592593 4.36898578,17.2740741 C5.61808738,16.8296296 15.1155668,15.7333333 15.7401175,16.1777778 C16.4938858,16.7111111 15.4816827,19.762963 14.3187261,20.1777778 C13.0696245,20.6222222 11.9174359,22 10.0545517,22 C8.51471091,22 11.3574938,22 7.68556588,22 Z M8.36283257,7.92592593 C8.05517208,7.92592593 6,7.82222222 6,7.00740741 C6,5.80740741 6.92298147,4.97777778 7.18141629,4.74074074 C7.67367307,4.26666667 7.62444739,3.65925926 7.89518863,3.14074074 C8.26438122,2.42962963 9.21197553,2 9.54424886,2 C9.81499009,2 10.6149074,2.59259259 11.2056155,3.36296296 C11.4763567,3.71851852 12.1532098,5.36296296 12.1532098,5.88148148 C12.1532098,7.51111111 11.365599,7.92592593 10.7379716,7.92592593 C10.0980377,7.92592593 9.87652219,7.92592593 8.36283257,7.92592593 Z M4.34257054,13.437037 C3.505734,12.7111111 4.33026412,11.4222222 5.43784189,10.4592593 C6.43466188,9.6 7.09920854,10.0888889 8.16986705,9.7037037 C10.0650557,9.02222222 10.9141986,9.73333333 10.9141986,9.73333333 L13.2278055,11.362963 C14.618431,12.562963 13.3385633,12.6222222 12.5878717,13.9407407 C11.861793,15.2148148 9.88045939,14.7555556 8.94517149,15.0814815 C8.15756063,15.3777778 6.88999941,15.6444444 5.49937399,14.4444444 L4.34257054,13.437037 Z" id="Shape-Copy" fill="#333333" fill-rule="nonzero"></path>
        <path d="M9.54424886,0 C10.6721675,0 11.8878834,0.965918588 12.7968203,2.15132464 C13.3521416,2.88060981 14.1532098,4.93350335 14.1532098,5.88148148 C14.1532098,7.06981042 13.8200563,8.05507389 13.2504494,8.75556209 L13.155,8.865 L14.3795182,9.72786115 L14.5344248,9.84878131 C15.8129904,10.9520826 16.3138167,12.2675982 15.4241064,13.6442388 C15.362789,13.7391146 15.2662228,13.8603127 15.1581824,13.9863378 L15.09,14.064 L15.1680161,14.0676191 C15.9175607,14.1069019 16.422637,14.2397648 16.813298,14.489759 L16.8953071,14.5451305 C19.2009159,16.1764782 17.4759036,21.1750642 14.9891732,22.062055 C14.9347776,22.0814096 14.8672811,22.1112363 14.7851152,22.1534101 C14.6788924,22.2079317 14.5550527,22.2794132 14.3940807,22.3788946 C14.2863251,22.4454881 13.8574085,22.7180837 13.866405,22.7124106 C12.4830118,23.5847632 11.4645403,24 10.0545517,24 L7.68556588,24 C6.79016906,24 5.40045506,23.9073393 4.22110759,23.7094673 C1.58824971,23.267724 0,22.5300126 0,20.3851852 C0,17.5813478 1.36105534,16.1936583 3.69853868,15.3897968 L3.585,15.429 L3.02910623,14.9452849 C0.947921902,13.1399364 2.00275831,10.7956131 4.13202221,8.94438799 C4.20363772,8.88265539 4.27544478,8.82406154 4.34752942,8.76850086 L4.528,8.636 L4.48391631,8.58321946 C4.20666334,8.22693991 4.03649351,7.77686391 4.00523207,7.20323419 L4,7.00740741 C4,5.90133596 4.40075461,4.93954618 5.04159483,4.11049176 C5.25386815,3.83587396 5.43038165,3.64451146 5.63465551,3.44897399 L5.724,3.365 C5.71543395,3.36617966 5.71719804,3.35000603 5.727455,3.30940459 L5.74054382,3.26035282 C5.74655973,3.23847615 5.74655973,3.23847615 5.75300242,3.21498069 C5.87416627,2.77315467 5.95092204,2.54329006 6.1201575,2.21918526 C6.77981145,0.948609244 8.34836531,0 9.54424886,0 Z M15.7401175,16.1777778 C15.1155668,15.7333333 5.61808738,16.8296296 4.36898578,17.2740741 C3.2491016,17.6592593 2,18.237037 2,20.3851852 C2,21.837037 6.91026144,22 7.68556588,22 L10.0545517,22 C11.9174359,22 13.0696245,20.6222222 14.3187261,20.1777778 C15.4816827,19.762963 16.4938858,16.7111111 15.7401175,16.1777778 Z M10.9141986,9.73333333 C10.9141986,9.73333333 10.0650557,9.02222222 8.16986705,9.7037037 C7.09920854,10.0888889 6.43466188,9.6 5.43784189,10.4592593 C4.33026412,11.4222222 3.505734,12.7111111 4.34257054,13.437037 L5.49937399,14.4444444 C6.88999941,15.6444444 8.15756063,15.3777778 8.94517149,15.0814815 C9.88045939,14.7555556 11.861793,15.2148148 12.5878717,13.9407407 C13.3385633,12.6222222 14.618431,12.562963 13.2278055,11.362963 L10.9141986,9.73333333 Z M9.54424886,2 C9.21197553,2 8.26438122,2.42962963 7.89518863,3.14074074 C7.62444739,3.65925926 7.67367307,4.26666667 7.18141629,4.74074074 C6.92298147,4.97777778 6,5.80740741 6,7.00740741 C6,7.82222222 8.05517208,7.92592593 8.36283257,7.92592593 L10.7379716,7.92592593 C11.365599,7.92592593 12.1532098,7.51111111 12.1532098,5.88148148 C12.1532098,5.36296296 11.4763567,3.71851852 11.2056155,3.36296296 C10.6149074,2.59259259 9.81499009,2 9.54424886,2 Z" id="Shape-Copy" fill="#FFFFFF" fill-rule="nonzero"></path>
    </g>
</svg>