<?xml version="1.0" encoding="UTF-8"?>
<svg width="24px" height="20px" viewBox="0 0 24 20" version="1.1" xmlns="http://www.w3.org/2000/svg" xmlns:xlink="http://www.w3.org/1999/xlink">
    <title>campsite</title>
    <g id="campsite" stroke="none" stroke-width="1" fill="none" fill-rule="evenodd">
        <path d="M12,2 L19.149,13.999 L20.75,14 C21.4403559,14 22,14.5596441 22,15.25 L22,16.75 C22,17.4403559 21.4403559,18 20.75,18 L3.25,18 C2.55964406,18 2,17.4403559 2,16.75 L2,15.25 C2,14.5596441 2.55964406,14 3.25,14 L4.85,13.999 L12,2 Z M12,8.08066507 L8.475,13.999 L15.525,13.999 L12,8.08066507 Z" id="Combined-Shape-Copy" fill="#4F2E28" fill-rule="nonzero"></path>
        <path d="M13.7181616,0.976319944 L20.285,11.999 L20.75,12 C22.4830315,12 23.8992459,13.3564548 23.9948552,15.0655761 L24,15.25 L24,16.75 C24,18.5449254 22.5449254,20 20.75,20 L3.25,20 C1.45507456,20 0,18.5449254 0,16.75 L0,15.25 C0,13.4550746 1.45507456,12 3.24875,12 L3.712,12 L10.2819014,0.976214272 C11.0575418,-0.325451353 12.9426012,-0.325393383 13.7181616,0.976319944 Z M12,2 L4.85,13.999 L3.25,14 C2.55964406,14 2,14.5596441 2,15.25 L2,16.75 C2,17.4403559 2.55964406,18 3.25,18 L20.75,18 C21.4403559,18 22,17.4403559 22,16.75 L22,15.25 C22,14.5596441 21.4403559,14 20.75,14 L19.149,13.999 L12,2 Z M12,8.08066507 L15.525,13.999 L8.475,13.999 L12,8.08066507 Z" id="Combined-Shape-Copy" fill="#FFFFFF" fill-rule="nonzero"></path>
    </g>
</svg>