<?xml version="1.0" encoding="UTF-8"?>
<svg width="18px" height="18px" viewBox="0 0 18 18" version="1.1" xmlns="http://www.w3.org/2000/svg" xmlns:xlink="http://www.w3.org/1999/xlink">
    <title>dam</title>
    <g id="dam" stroke="none" stroke-width="1" fill="none" fill-rule="evenodd">
        <path d="M2,16 L2,2.5 C2,2.22385763 2.22385763,2 2.5,2 L3.62284929,2 C3.84608947,2 4.04228247,2.14798866 4.10361127,2.36263944 L4.88,5.08 L5,5 L6,5 L7.5,6 L8.5,6 L10,5 L11,5 L12.5,6 L13.5,6 L15,5 L16,5 L16,7 L15,7 L13.5,8 L12.5,8 L11,7 L10,7 L8.5,8 L7.5,8 L6,7 L5.428,7 L6,9.001 L7.5,10 L8.5,10 L10,9 L11,9 L12.5,10 L13.5,10 L15,9 L16,9 L16,11 L15,11 L13.5,12 L12.5,12 L11,11 L10,11 L8.5,12 L7.5,12 L6.706,11.471 L7.412,13.942 L7.5,14 L8.5,14 L10,13 L11,13 L12.5,14 L13.5,14 L15,13 L16,13 L16,15 L15,15 L13.5,16 L12.5,16 L11,15 L10,15 L8.5,16 L2,16 Z" id="Combined-Shape" fill="#333333" fill-rule="nonzero"></path>
        <path d="M2.5,0 L3.62284929,0 C4.73905019,0 5.72001519,0.739943286 6.02665916,1.81319718 L6.365,3 L6.60555128,3 L7.10940039,3.33589941 L8,3.929 L8.89059961,3.33589941 L9.39444872,3 L11.6055513,3 L12.1094004,3.33589941 L13,3.929 L13.8905996,3.33589941 L14.3944487,3 L18,3 L18,17 L15.605,17 L14.1055513,18 L11.8944487,18 L10.5,17.07 L9.10555128,18 L0,18 L0,2.5 C0,1.11928813 1.11928813,0 2.5,0 Z M3.62284929,2 L2.5,2 C2.22385763,2 2,2.22385763 2,2.5 L2,16 L8.5,16 L10,15 L11,15 L12.5,16 L13.5,16 L15,15 L16,15 L16,13 L15,13 L13.5,14 L12.5,14 L11,13 L10,13 L8.5,14 L7.5,14 L7.412,13.942 L6.706,11.471 L7.5,12 L8.5,12 L10,11 L11,11 L12.5,12 L13.5,12 L15,11 L16,11 L16,9 L15,9 L13.5,10 L12.5,10 L11,9 L10,9 L8.5,10 L7.5,10 L6,9.001 L5.428,7 L6,7 L7.5,8 L8.5,8 L10,7 L11,7 L12.5,8 L13.5,8 L15,7 L16,7 L16,5 L15,5 L13.5,6 L12.5,6 L11,5 L10,5 L8.5,6 L7.5,6 L6,5 L5,5 L4.88,5.08 L4.10361127,2.36263944 C4.04228247,2.14798866 3.84608947,2 3.62284929,2 Z" id="Combined-Shape-Copy" fill="#FFFFFF" fill-rule="nonzero"></path>
    </g>
</svg>