<?xml version="1.0" encoding="UTF-8"?>
<svg width="32px" height="32px" viewBox="0 0 32 32" version="1.1" xmlns="http://www.w3.org/2000/svg" xmlns:xlink="http://www.w3.org/1999/xlink">
    <title>forest_reserve</title>
    <g id="forest_reserve" stroke="none" stroke-width="1" fill="none" fill-rule="evenodd">
        <rect id="Rectangle" stroke="#FFFFFF" stroke-width="2" fill="#005908" x="1" y="1" width="30" height="30" rx="5.87368441"></rect>
        <polygon id="Path" fill="#FFFFFF" fill-rule="nonzero" points="15 20 15 25 17 25 17 20"></polygon>
        <path d="M16,16 L9.2,21.1 C8.9790861,21.2656854 8.93431458,21.5790861 9.1,21.8 C9.19442719,21.9259029 9.34262135,22 9.5,22 L22.5,22 C22.7761424,22 23,21.7761424 23,21.5 C23,21.3426213 22.9259029,21.1944272 22.8,21.1 L16,16 L16,16 Z" id="Path-Copy-2" fill="#FFFFFF" fill-rule="nonzero"></path>
        <path d="M16,11 L10.026233,16.1203717 C9.8165701,16.3000828 9.79228933,16.6157328 9.9720004,16.8253957 C10.0669915,16.9362186 10.2056663,17 10.3516287,17 L21.6483713,17 C21.9245137,17 22.1483713,16.7761424 22.1483713,16.5 C22.1483713,16.3540376 22.0845899,16.2153628 21.973767,16.1203717 L16,11 L16,11 Z" id="Path-Copy-3" fill="#FFFFFF" fill-rule="nonzero"></path>
        <path d="M16,6.5 L11.3535534,11.1464466 C11.1582912,11.3417088 11.1582912,11.6582912 11.3535534,11.8535534 C11.4473216,11.9473216 11.5744985,12 11.7071068,12 L20.2928932,12 C20.5690356,12 20.7928932,11.7761424 20.7928932,11.5 C20.7928932,11.3673918 20.7402148,11.2402148 20.6464466,11.1464466 L16,6.5 L16,6.5 Z" id="Path-Copy-4" fill="#FFFFFF" fill-rule="nonzero"></path>
    </g>
</svg>