<?xml version="1.0" encoding="UTF-8"?>
<svg width="32px" height="32px" viewBox="0 0 32 32" version="1.1" xmlns="http://www.w3.org/2000/svg" xmlns:xlink="http://www.w3.org/1999/xlink">
    <title>game_land</title>
    <g id="game_land" stroke="none" stroke-width="1" fill="none" fill-rule="evenodd">
        <rect id="Rectangle" stroke="#FFFFFF" stroke-width="2" fill="#005908" x="1" y="1" width="30" height="30" rx="5.87368441"></rect>
        <path d="M23.8199219,5 C23.9492802,5.01537682 23.8998927,5.0034359 24.0365584,5.05627655 C24.1882717,5.14844665 24.1361856,5.11269326 24.2665381,5.21166437 C24.5672618,5.47108597 24.7608395,5.70992149 25.0078486,6.02205145 C25.225057,6.3327427 25.146929,6.21218656 25.3505829,6.54619474 C25.4149242,6.66887383 25.4465957,6.72767879 25.469303,6.77189538 L25.509789,6.85548062 C25.5310797,6.90215086 25.5592098,6.96708992 25.6178849,7.09958359 C25.7517122,7.46491031 25.7064417,7.32962019 25.8128072,7.69015668 C25.9026421,8.08244575 25.8732643,7.93685508 25.9385481,8.32549873 C26.0065964,8.93030382 25.9979415,8.92815289 26,9.49476907 C25.9619631,10.0588139 25.9850248,9.84629784 25.9036369,10.4219274 C25.7874067,10.9534381 25.8400576,10.754148 25.678342,11.2918804 C25.486964,11.783629 25.5680716,11.6002877 25.3292221,12.0926112 C25.0660329,12.5374585 25.1743178,12.3728499 24.8615992,12.8120438 C24.8267728,12.8530316 24.7967545,12.8884754 24.7705658,12.919435 L24.6515611,13.0598603 C24.5480712,13.1806927 24.5363378,13.1856532 24.2807292,13.4382294 C23.8676078,13.7776714 23.962976,13.7040902 23.8129679,13.8083478 C22.9813265,14.3527282 23.018722,14.1994899 21.3238681,15.3444572 C20.7159592,15.764059 20.2187506,16.1181606 19.5665647,16.6352247 C19.228657,16.9108119 19.1628085,16.9777429 19.0039305,17.3349908 C18.8925234,17.6072179 18.8795371,17.6461176 18.7440778,18.3010468 C18.7335934,18.3528895 18.7247546,18.3965402 18.716825,18.4360826 L18.6742688,18.6567064 L18.6501301,18.7912994 L18.64573,18.8626632 C18.7820416,18.8903377 18.9418413,18.8747478 19.1200188,18.8652367 C19.3726336,18.3509606 19.4106698,18.2608614 19.6834328,17.9550269 C19.8421689,17.8063643 19.7819992,17.8584212 19.9470485,17.729709 C20.1357271,17.6075053 20.0642728,17.6501234 20.2599786,17.545293 C21.0061121,17.2147894 21.2100498,17.3177598 22.3693779,16.905737 C23.0603763,16.6446658 23.1642611,16.5334012 23.7988456,16.341979 C23.9980298,16.2962847 23.9265719,16.3092282 24.1122745,16.2834135 C24.2678849,16.2799812 24.2127497,16.2766919 24.3545259,16.2952829 C24.4755132,16.3356857 24.4345698,16.3173792 24.5310017,16.3770166 C24.6133149,16.4612516 24.5861369,16.4270714 24.6472319,16.5281812 C24.6866858,16.6282192 24.6745518,16.5803097 24.6986772,16.743988 C24.6744099,17.1425682 23.8776825,17.8559865 23.76138,18.1486652 C23.5865355,18.5625457 23.6583467,18.411379 23.451218,18.8104597 C23.2313869,19.1572676 23.3203695,19.0317747 23.0661921,19.3601352 C22.9780142,19.4532366 22.9310161,19.5042445 22.8963989,19.5404136 L22.8351394,19.6010421 C22.7939275,19.6390382 22.7405939,19.6829559 22.6068743,19.7973985 C22.2828051,20.019284 22.404641,19.9439874 22.0736178,20.1216825 C21.7030718,20.2724181 20.8420792,20.2230791 20.466918,20.3327691 C20.0504601,20.4120708 20.2059321,20.3888311 19.7873433,20.4302335 C19.6803943,20.4367881 19.6052561,20.4419145 19.5503083,20.4467461 C19.9379721,21.4314105 19.7406192,22.5726626 19,23.375 L17.5,25 C17.5,26.3333333 17,27 16,27 C15.05,27 14.55125,26.3983333 14.50375,25.195 L14.5,25 L13,23.375 C12.2593808,22.5726626 12.0620279,21.4314105 12.4469995,20.4464582 C12.3947439,20.4419145 12.3196057,20.4367881 12.2126567,20.4302335 C11.7940679,20.3888311 11.9495399,20.4120708 11.533082,20.3327691 C11.1579208,20.2230791 10.2969282,20.2724181 9.9263822,20.1216825 C9.59535899,19.9439874 9.71719495,20.019284 9.39312573,19.7973985 C9.2594061,19.6829559 9.20607251,19.6390382 9.16486064,19.6010421 L9.10360107,19.5404136 C9.06898389,19.5042445 9.02198583,19.4532366 8.93380787,19.3601352 C8.67963046,19.0317747 8.76861309,19.1572676 8.54878199,18.8104597 C8.34165326,18.411379 8.41346452,18.5625457 8.23862003,18.1486652 C8.12231745,17.8559865 7.32559007,17.1425682 7.30132279,16.743988 C7.32544815,16.5803097 7.31331416,16.6282192 7.35276809,16.5281812 C7.41386312,16.4270714 7.38668509,16.4612516 7.46899829,16.3770166 C7.5654302,16.3173792 7.52448684,16.3356857 7.64547413,16.2952829 C7.78725029,16.2766919 7.73211512,16.2799812 7.88772545,16.2834135 C8.0734281,16.3092282 8.00197021,16.2962847 8.20115437,16.341979 C8.83573893,16.5334012 8.93962367,16.6446658 9.63062208,16.905737 C10.7899502,17.3177598 10.9938879,17.2147894 11.7400214,17.545293 C11.9357272,17.6501234 11.8642729,17.6075053 12.0529515,17.729709 C12.2180008,17.8584212 12.1578311,17.8063643 12.3165672,17.9550269 C12.5893302,18.2608614 12.6273664,18.3509606 12.8799812,18.8652367 C13.0581587,18.8747478 13.2179584,18.8903377 13.35427,18.8626632 L13.3498699,18.7912994 L13.3257312,18.6567064 L13.283175,18.4360826 C13.2752454,18.3965402 13.2664066,18.3528895 13.2559222,18.3010468 C13.1204629,17.6461176 13.1074766,17.6072179 12.9960695,17.3349908 C12.8371915,16.9777429 12.771343,16.9108119 12.4334353,16.6352247 C11.7812494,16.1181606 11.2840408,15.764059 10.6761319,15.3444572 C8.98127804,14.1994899 9.01867346,14.3527282 8.1870321,13.8083478 C8.03702398,13.7040902 8.13239222,13.7776714 7.71927082,13.4382294 C7.46366217,13.1856532 7.45192876,13.1806927 7.3484389,13.0598603 L7.22943419,12.919435 C7.20324552,12.8884754 7.17322725,12.8530316 7.13840083,12.8120438 C6.82568222,12.3728499 6.93396713,12.5374585 6.67077793,12.0926112 C6.43192838,11.6002877 6.51303598,11.783629 6.32165803,11.2918804 C6.15994238,10.754148 6.21259328,10.9534381 6.09636308,10.4219274 C6.0149752,9.84629784 6.03803688,10.0588139 6,9.49476907 L6.00074448,9.18838443 C6.00199972,8.89913572 6.00852549,8.79590269 6.06145195,8.32549873 C6.12673568,7.93685508 6.09735793,8.08244575 6.18719278,7.69015668 C6.29355826,7.32962019 6.24828781,7.46491031 6.38211514,7.09958359 C6.44079019,6.96708992 6.4689203,6.90215086 6.490211,6.85548062 L6.53069703,6.77189538 C6.55340429,6.72767879 6.58507582,6.66887383 6.64941713,6.54619474 C6.85307099,6.21218656 6.77494296,6.3327427 6.99215142,6.02205145 C7.23916054,5.70992149 7.43273822,5.47108597 7.73346192,5.21166437 C7.86381438,5.11269326 7.81172832,5.14844665 7.96344158,5.05627655 C8.10010727,5.0034359 8.05071978,5.01537682 8.18007811,5 C8.15860331,5.75622306 8.01524394,6.42288973 7.75,7 C7.4414701,7.71670891 8.18919728,11.1883351 8.5,10.75 C8.87906248,10.3034387 10,9 11,7.75 C12,6.5 13.5841085,6.39087772 14.3176823,6.25780789 C14.4287361,6.24822741 14.3826127,6.2503011 14.5219046,6.24965182 L14.6081922,6.25973571 L14.6359351,6.28032895 C14.6585014,6.35941902 14.652895,6.32108924 14.6586398,6.45366282 L14.6234441,6.55205472 L14.5349603,6.66131923 C14.1980468,6.99697493 11.1413875,10.3092901 10.8703956,10.6979337 C10.7150655,10.9505679 10.6076321,11.1075267 10.3772998,11.6014891 C10.3005924,11.7820438 10.2802264,11.8317424 10.25,12 C10.2406348,12.1281394 10.236092,12.1621052 10.2775314,12.3913602 C10.4132753,12.994949 11.1253462,13.7744077 11.75,14.25 C11.8265648,14.2941905 13.0465469,14.7672655 13.25,13.75 C13.4534531,12.7327345 12.3487596,10.6012235 12.75,11 C13.1862703,11.4335913 15.5,12.5 14.75,14.25 C14,16 13.75,15.75 14.5708649,17.2709987 C14.6168783,17.5951414 14.6938259,17.7639727 14.8317214,17.9986532 L17.1682786,17.9986532 C17.3061741,17.7639727 17.3831217,17.5951414 17.4291351,17.2709987 C18.25,15.75 18,16 17.25,14.25 C16.5,12.5 18.8137297,11.4335913 19.25,11 C19.6512404,10.6012235 18.5465469,12.7327345 18.75,13.75 C18.9534531,14.7672655 20.1734352,14.2941905 20.25,14.25 C20.8746538,13.7744077 21.5867247,12.994949 21.7224686,12.3913602 C21.763908,12.1621052 21.7593652,12.1281394 21.75,12 C21.7197736,11.8317424 21.6994076,11.7820438 21.6227002,11.6014891 C21.3923679,11.1075267 21.2849345,10.9505679 21.1296044,10.6979337 C20.8586125,10.3092901 17.8019532,6.99697493 17.4650397,6.66131923 L17.3765559,6.55205472 L17.3413602,6.45366282 C17.347105,6.32108924 17.3414986,6.35941902 17.3640649,6.28032895 L17.3918078,6.25973571 L17.4780954,6.24965182 C17.6173873,6.2503011 17.5712639,6.24822741 17.6823177,6.25780789 C18.4158915,6.39087772 20,6.5 21,7.75 C22,9 23.1209375,10.3034387 23.5,10.75 C23.8108027,11.1883351 24.5585299,7.71670891 24.25,7 C23.9847561,6.42288973 23.8413967,5.75622306 23.8199219,5 Z" id="Rectangle-2" fill="#FFFFFF"></path>
    </g>
</svg>