<?xml version="1.0" encoding="UTF-8"?>
<svg width="32px" height="32px" viewBox="0 0 32 32" version="1.1" xmlns="http://www.w3.org/2000/svg" xmlns:xlink="http://www.w3.org/1999/xlink">
    <title>grassland_reserve</title>
    <g id="grassland_reserve" stroke="none" stroke-width="1" fill="none" fill-rule="evenodd">
        <rect id="Rectangle" stroke="#FFFFFF" stroke-width="2" fill="#005908" x="1" y="1" width="30" height="30" rx="5.87368441"></rect>
        <g id="grass" transform="translate(5, 8)" fill="#FFFFFF" fill-rule="nonzero">
            <path d="M8.5,8 C9,2.66666667 10.9166667,0 14.25,0 C12,4.23529412 12,5 12.0645161,8.54132379 C11.4393241,9.6172342 10.8413978,11.6042243 10.25,13 C9.68676395,11.4103666 9.10343062,9.74369994 8.5,8 Z M11.25,14 C13.7169739,7.51545889 16.0522273,4.35399679 19.0092166,4.36853612 C20.0906298,4.32491813 21.172043,4.55754741 22,5.00826664 C20.2089094,5.06642396 17.3245008,7.39501093 16.75,8.5 C16.1754992,9.60498907 15,12.75 15.1029186,15.9854607 L11.5,16 C11.4459805,15.0156106 11.3626472,14.3489439 11.25,14 Z M0,5.00826664 C0.709677419,4.55754741 1.6390169,4.32491813 2.55145929,4.36853612 C5.33947773,4.36853612 7.73579109,8.23599786 10,16 L6.06912442,16 C5.2749616,10.7076839 3.70046083,7.69804266 3.3625192,6.95653684 C2.87250384,5.83700844 1.53763441,5.06642396 0,5.00826664 Z" id="Shape"></path>
        </g>
    </g>
</svg>