<?xml version="1.0" encoding="UTF-8"?>
<svg width="18px" height="24px" viewBox="0 0 18 24" version="1.1" xmlns="http://www.w3.org/2000/svg" xmlns:xlink="http://www.w3.org/1999/xlink">
    <title>guidepost</title>
    <g id="guidepost" stroke="none" stroke-width="1" fill="none" fill-rule="evenodd">
        <path d="M9,2 C9.55228475,2 10,2.44771525 10,3 L10,4 L10,4 L14,4 L16,6 L14,8 L10,8 L10,10 L14,10 C14.5522847,10 15,10.4477153 15,11 L15,13 C15,13.5522847 14.5522847,14 14,14 L10,14 L10,14 L10,22 L8,22 L8,14 L4,14 L2,12 L4,10 L8,10 L8,8 L4,8 C3.44771525,8 3,7.55228475 3,7 L3,5 C3,4.44771525 3.44771525,4 4,4 L8,4 L8,4 L8,3 C8,2.44771525 8.44771525,2 9,2 Z" id="Rectangle" fill="#333333"></path>
        <path d="M9,0 C10.3018141,0 11.4099611,0.829186917 11.8251041,1.98822366 L11.829,2 L14,2 C14.471496,2 14.9258264,2.16648982 15.2843934,2.46691315 L15.4142136,2.58578644 L17.4142136,4.58578644 C18.1952621,5.36683502 18.1952621,6.63316498 17.4142136,7.41421356 L16.033,8.795 L16.1213203,8.87867966 C16.6254355,9.38279479 16.9509738,10.0654867 16.9949073,10.8237272 L17,11 L17,13 C17,14.6568542 15.6568542,16 14,16 L12,16 L12,22 C12,23.0543618 11.1841222,23.9181651 10.1492623,23.9945143 L10,24 L8,24 C6.8954305,24 6,23.1045695 6,22 L6,16 L4,16 C3.52850402,16 3.07417359,15.8335102 2.71560663,15.5330869 L2.58578644,15.4142136 L0.585786438,13.4142136 C-0.195262146,12.633165 -0.195262146,11.366835 0.585786438,10.5857864 L1.967,9.204 L1.87867966,9.12132034 C1.37456452,8.61720521 1.04902616,7.93451331 1.00509269,7.17627279 L1,7 L1,5 C1,3.34314575 2.34314575,2 4,2 L6.17,2 L6.17489588,1.98822366 C6.57116874,0.881870406 7.59887713,0.0760621368 8.82372721,0.00509269341 L9,0 Z M9,2 C8.44771525,2 8,2.44771525 8,3 L8,4 L4,4 C3.44771525,4 3,4.44771525 3,5 L3,7 C3,7.55228475 3.44771525,8 4,8 L8,8 L8,10 L4,10 L2,12 L4,14 L8,14 L8,22 L10,22 L10,14 L14,14 C14.5522847,14 15,13.5522847 15,13 L15,11 C15,10.4477153 14.5522847,10 14,10 L10,10 L10,8 L14,8 L16,6 L14,4 L10,4 L10,3 C10,2.44771525 9.55228475,2 9,2 Z" id="Rectangle-Copy" fill="#FFFFFF" fill-rule="nonzero"></path>
    </g>
</svg>