<?xml version="1.0" encoding="UTF-8"?>
<svg width="18px" height="20px" viewBox="0 0 18 20" version="1.1" xmlns="http://www.w3.org/2000/svg" xmlns:xlink="http://www.w3.org/1999/xlink">
    <title>lean_to</title>
    <g id="lean_to" stroke="none" stroke-width="1" fill="none" fill-rule="evenodd">
        <path d="M16,2 L16,5.5 L8,10.071 L8,14.499 L16,14.5 L16,18 L6,18 C5.44771525,18 5,17.5522847 5,17 L5,11.786 L2,13.5 L2,10 L16,2 Z" id="Shape-Copy" fill="#4F2E28" fill-rule="nonzero"></path>
        <path d="M18,2 L18,5.5 C18,6.21774257 17.6153972,6.88045149 16.9922077,7.23652636 L10,11.231 L10,12.499 L16.00025,12.5 C17.0545186,12.5001318 17.9181789,13.3159787 17.9945152,14.3507506 L18,14.5 L18,18 C18,19.1045695 17.1045695,20 16,20 L6,20 C4.34314575,20 3,18.6568542 3,17 L3,15.231 C1.70328407,15.9729314 0.110227657,15.0978483 0.0054559726,13.651606 L0,13.5 L0,10 C0,9.2822863 0.384572129,8.61959943 1.00772212,8.26351372 L15.0077221,0.263513716 C16.3410357,-0.498379731 18,0.464354663 18,2 Z M16,2 L2,10 L2,13.5 L5,11.786 L5,17 C5,17.5522847 5.44771525,18 6,18 L16,18 L16,14.5 L8,14.499 L8,10.071 L16,5.5 L16,2 Z" id="Shape-Copy" fill="#FFFFFF" fill-rule="nonzero"></path>
    </g>
</svg>