<?xml version="1.0" encoding="UTF-8"?>
<svg width="14px" height="23px" viewBox="0 0 14 23" version="1.1" xmlns="http://www.w3.org/2000/svg" xmlns:xlink="http://www.w3.org/1999/xlink">
    <title>lock</title>
    <g id="lock" stroke="none" stroke-width="1" fill="none" fill-rule="evenodd">
        <polygon id="Path-Copy" fill="#345A74" fill-rule="nonzero" points="7 2.486 7.71727938 3.22437583 11.7172794 7.90686137 12 8.19789731 12 20.9505733 10.2827206 19.1827857 6.999 15.803 3.71727938 19.1827857 2 20.9505733 2 8.19789731 2.28272062 7.90686137 6.28272062 3.22437583"></polygon>
        <path d="M8.43455876,1.09242863 L9.15183814,1.83080446 L9.23796628,1.92533336 L13.198,6.561 L13.4345588,6.80432594 C13.7568743,7.13612137 13.9529528,7.567974 13.9925466,8.02533628 L14,8.19789731 L14,20.9505733 C14,22.7463915 11.8167416,23.632248 10.5654412,22.3441447 L8.84826797,20.5764663 L6.999,18.673 L5.15183814,20.5763571 L3.43455876,22.3441447 C2.18325836,23.632248 0,22.7463915 0,20.9505733 L0,8.19789731 C0,7.67750055 0.20283623,7.1775958 0.565441238,6.80432594 L0.802,6.561 L4.76203372,1.92533336 L4.84816186,1.83080446 L5.56544124,1.09242863 C6.3509107,0.283857123 7.6490893,0.283857123 8.43455876,1.09242863 Z M7,2.486 L6.28272062,3.22437583 L2.28272062,7.90686137 L2,8.19789731 L2,20.9505733 L3.71727938,19.1827857 L6.999,15.803 L10.2827206,19.1827857 L12,20.9505733 L12,8.19789731 L11.7172794,7.90686137 L7.71727938,3.22437583 L7,2.486 Z" id="Path-Copy" fill="#FFFFFF" fill-rule="nonzero"></path>
        <path d="M7,2.486 L7.71727938,3.22437583 L11.7172794,7.90686137 L12,8.19789731 L12,20.9505733 L10.2827206,19.1827857 L6.999,15.803 L3.71727938,19.1827857 L2,20.9505733 L2,8.19789731 L2.28272062,7.90686137 L6.28272062,3.22437583 L7,2.486 Z M7.001,3.922 L3,8.603 L3,18.485 L6.28156153,15.1063781 C6.64403912,14.7330689 7.22506397,14.7042686 7.62126106,15.0200386 L7.71622632,15.1061597 L11,18.485 L11,8.602 L10.9569359,8.55638261 L7.001,3.922 Z" id="Path-Copy" fill="#345A74" fill-rule="nonzero"></path>
        <polygon id="Path" fill="#FFFFFF" fill-rule="nonzero" points="7 5.921 4 9.485 4 16.021 6.28272062 13.6715673 7 12.9331914 7.71727938 13.6715673 10 16.021 10 9.486"></polygon>
        <path d="M7,4.921 L10,8.486 L10,17.021 L7.71727938,14.6715673 L7,13.9331914 L6.28272062,14.6715673 L4,17.021 L4,8.485 L7,4.921 Z M6.999,6.696 L4.5,9.666 L4.5,14.789 L5.92408093,13.3231744 L6.64136031,12.5847986 C6.83772768,12.3826557 7.16227232,12.3826557 7.35863969,12.5847986 L8.07588745,13.3231419 L9.5,14.789 L9.5,9.668 L6.999,6.696 Z" id="Path" fill="#345A74" fill-rule="nonzero"></path>
    </g>
</svg>