<?xml version="1.0" encoding="UTF-8"?>
<svg width="33px" height="15px" viewBox="0 0 33 15" version="1.1" xmlns="http://www.w3.org/2000/svg" xmlns:xlink="http://www.w3.org/1999/xlink">
    <title>arrows-leftright</title>
    <g id="arrows-leftright" stroke="none" stroke-width="1" fill="none" fill-rule="evenodd">
        <path d="M11.9968514,9 L13.9984266,13 L1.99842665,7.5 L13.9984266,2 L11.9984266,6 L21,6 L19,2 L31,7.5 L19,13 L21.0015752,9 L11.9968514,9 Z" id="Combined-Shape-Copy" fill="#000000" fill-rule="nonzero"></path>
        <path d="M19.701269,0.126439059 L19.8333094,0.181870354 L31.8333094,5.68187035 C33.3888969,6.39484793 33.3888969,8.60515207 31.8333094,9.31812965 L19.8333094,14.8181296 C18.1167935,15.6048661 16.3664571,13.7936201 17.2114274,12.1050094 L17.7644266,11 L15.2334266,11 L15.7869992,12.1050094 C16.6103036,13.7503224 14.9696876,15.5120623 13.2971793,14.8735695 L13.1651172,14.8181296 L1.16511723,9.31812965 C-0.39047021,8.60515207 -0.39047021,6.39484793 1.16511723,5.68187035 L13.1651172,0.181870354 C14.8813465,-0.604734736 16.6315784,1.20583238 15.787281,2.89442719 L15.2334266,4 L17.7634266,4 L17.2111456,2.89442719 C16.3884969,1.24912969 18.0290305,-0.511965332 19.701269,0.126439059 Z M19,2 L21,6 L11.9984266,6 L13.9984266,2 L1.99842665,7.5 L13.9984266,13 L11.9968514,9 L21.0015752,9 L19,13 L31,7.5 L19,2 Z" id="Combined-Shape-Copy" fill="#FFFFFF" fill-rule="nonzero"></path>
    </g>
</svg>