<?xml version="1.0" encoding="UTF-8"?>
<svg width="23px" height="15px" viewBox="0 0 23 15" version="1.1" xmlns="http://www.w3.org/2000/svg" xmlns:xlink="http://www.w3.org/1999/xlink">
    <title>arrow-left</title>
    <g id="arrow-left" stroke="none" stroke-width="1" fill="none" fill-rule="evenodd">
        <polygon id="Path-Copy" fill="#000000" fill-rule="nonzero" transform="translate(11.4992, 7.5) scale(-1, 1) translate(-11.4992, -7.5)" points="9 2 11 6 1.99842665 6.00000416 2 9 11.0015752 9 9 13 21 7.5"></polygon>
        <path d="M9.83330943,0.181870354 L21.8333094,5.68187035 C23.3888969,6.39484793 23.3888969,8.60515207 21.8333094,9.31812965 L9.83330943,14.8181296 C8.11679354,15.6048661 6.36645711,13.7936201 7.21142746,12.1050094 L7.76442666,11 L2.00000001,11 C0.946029191,11 0.0823983082,10.1847046 0.00556038879,9.15025403 L2.81072242e-07,9.0010489 L-0.00157335013,6.0010489 C-0.00215257534,4.89606991 0.893447513,4 1.99842665,4 L7.76342666,4 L7.21114562,2.89442719 C6.36684822,1.20583238 8.11708014,-0.604734736 9.83330943,0.181870354 Z M9.00000001,2 L11,6 L1.99842666,6 L2.00000001,9 L11.0015752,9 L9.00000001,13 L21,7.5 L9.00000001,2 Z" id="Path-Copy" fill="#FFFFFF" fill-rule="nonzero" transform="translate(11.4992, 7.5) scale(-1, 1) translate(-11.4992, -7.5)"></path>
    </g>
</svg>