<?xml version="1.0" encoding="UTF-8"?>
<svg width="32px" height="32px" viewBox="0 0 32 32" version="1.1" xmlns="http://www.w3.org/2000/svg" xmlns:xlink="http://www.w3.org/1999/xlink">
    <title>park</title>
    <g id="park" stroke="none" stroke-width="1" fill="none" fill-rule="evenodd">
        <rect id="Rectangle" stroke="#FFFFFF" stroke-width="2" fill="#005908" x="1" y="1" width="30" height="30" rx="5.87368441"></rect>
        <g id="Shape-2" transform="translate(8, 7)" fill="#FFFFFF" fill-rule="nonzero">
            <path d="M15.9996815,6.55050116 C16.0147739,5.59804163 15.4924153,4.7242714 14.6640676,4.31611411 C14.5939479,3.41486507 13.8645692,2.72373169 12.9945503,2.73400154 C12.8625916,2.7449653 12.7325028,2.77299923 12.6072223,2.81727062 C12.5261505,1.90131072 11.7458849,1.22710871 10.8645133,1.31134927 C10.51899,1.34437934 10.1932337,1.49301465 9.93599451,1.73477255 L9.93599451,1.73477255 C9.93599451,0.776622976 9.18858499,0 8.26647717,0 C7.34436935,0 6.59695983,0.776622976 6.59695983,1.73477255 C6.59695983,1.73477255 6.65038438,1.76252891 6.65038438,1.80416345 C5.96735145,1.19532768 4.93866164,1.27720894 4.35272784,1.98707787 C4.15492342,2.22675405 4.02550244,2.51902853 3.97915664,2.8311488 C3.76772896,2.76106399 3.54655131,2.72831149 3.32470584,2.73400154 C2.21828331,2.7244256 1.31380559,3.64857363 1.30458986,4.7982421 C1.30231932,5.07552814 1.35347333,5.35031611 1.45484642,5.60678489 C0.396372425,5.91418658 -0.221883236,7.0551118 0.0739552364,8.15495759 C0.261208301,8.85122591 0.784768939,9.39525058 1.45484642,9.58982267 C1.79315741,10.6763454 2.91520663,11.2722745 3.96085873,10.9207402 C4.67581283,10.6803701 5.19950703,10.0421126 5.31477051,9.27062452 C5.55918785,9.49142637 5.86143727,9.63159599 6.18291953,9.67309175 L6.18291953,16.612182 L3.97915664,18 L10.657226,18 L8.52024381,16.612182 L8.52024381,13.8365459 C9.50606041,12.5993061 10.7794347,11.6439322 12.2198942,11.0609098 C13.2899881,11.3216808 14.3608833,10.6317965 14.6118451,9.52001542 C14.6497766,9.35195066 14.6674067,9.17958365 14.6640676,9.00693909 C14.6679409,8.93296839 14.6679409,8.85885891 14.6640676,8.7848882 C15.4924153,8.37673092 16.0147739,7.50296068 15.9996815,6.55050116 Z M8.52024381,12.8095605 L8.52024381,8.03546646 C8.88126024,8.70259059 9.56001921,9.11616037 10.2966103,9.11796453 L10.6705821,9.11796453 C10.6914177,9.72735544 10.9700268,10.2962221 11.431882,10.6723207 C10.3424218,11.1913647 9.35513604,11.9160833 8.52024381,12.8095605 Z" id="Shape"></path>
        </g>
    </g>
</svg>