<?xml version="1.0" encoding="UTF-8"?>
<svg width="24px" height="24px" viewBox="0 0 24 24" version="1.1" xmlns="http://www.w3.org/2000/svg" xmlns:xlink="http://www.w3.org/1999/xlink">
    <title>slipway-canoe-trailer</title>
    <g id="slipway-canoe-trailer" stroke="none" stroke-width="1" fill="none" fill-rule="evenodd">
        <rect id="Combined-Shape" fill="#003B93" x="0" y="0" width="24" height="24" rx="5.87368421"></rect>
        <path d="M4,14 L20,19 L18.5,20 L17.5,20 L16,19 L15,19 L13.5,20 L12.5,20 L11,19 L10,19 L8.5,20 L7.5,20 L6,19 L5,19 L3.99909037,19.6663295 L4,14 Z M15,11.5 C16.3807119,11.5 17.5,12.6192881 17.5,14 C17.5,15.3807119 16.3807119,16.5 15,16.5 C13.6192881,16.5 12.5,15.3807119 12.5,14 C12.5,12.6192881 13.6192881,11.5 15,11.5 Z M18.2480904,13.9523295 L20,14.5 L19.5,16.25 L17.759767,15.7172781 C18.0704794,15.2190005 18.25,14.6304649 18.25,14 L18.2480904,13.9523295 Z M15,13 C14.4477153,13 14,13.4477153 14,14 C14,14.5522847 14.4477153,15 15,15 C15.5522847,15 16,14.5522847 16,14 C16,13.4477153 15.5522847,13 15,13 Z M4,9.5 L12.3549347,12.1111472 C11.996665,12.6119572 11.7770903,13.2187629 11.7523433,13.8754311 L4,11.5 L4,9.5 Z M6.40557543,3.56356403 L6.58428254,3.57245747 C6.09699636,5.16629873 7.04873422,6.32868399 9.43949611,7.05961325 L15.655477,8.96002933 C18.0462389,9.69095859 19.4852629,9.2595026 19.9725491,7.66566134 L20.1256772,7.75822009 C20.9693152,8.31053748 21.3991434,9.32635185 21.1947808,10.3259802 C20.9208008,11.6661377 19.612284,12.5304453 18.2721266,12.2564653 L18.0216781,12.204575 C17.8912111,12.177215 17.7677457,12.1507313 17.6512819,12.125124 C17.0665719,11.2932359 16.0967257,10.75 15,10.75 C14.5609396,10.75 14.1422141,10.8370645 13.7601466,10.9948706 L7.03503352,8.93872466 C6.73237362,8.84619224 6.27519564,8.67538424 5.66349959,8.42630066 L5.42685172,8.3292707 C4.16260323,7.80700385 3.56110826,6.35874701 4.08337511,5.09449852 C4.47293589,4.15149088 5.3973158,3.54969948 6.40557543,3.56356403 Z" id="Path-2" fill="#FFFFFF" fill-rule="nonzero"></path>
    </g>
</svg>