<?xml version="1.0" encoding="UTF-8"?>
<svg width="24px" height="24px" viewBox="0 0 24 24" version="1.1" xmlns="http://www.w3.org/2000/svg" xmlns:xlink="http://www.w3.org/1999/xlink">
    <title>trailhead</title>
    <g id="trailhead" stroke="none" stroke-width="1" fill="none" fill-rule="evenodd">
        <rect id="Combined-Shape" fill="#4F2E28" x="0" y="0" width="24" height="24" rx="5.87368421"></rect>
        <path d="M11.7632232,7.53509898 C12.4275791,7.70109992 13.0080163,8.10226886 13.3856502,8.66598038 L14.3786874,10.1392387 L15.2974105,10.1391789 L15.1268494,9.39421372 C15.0224949,8.9384019 15.3074074,8.48429738 15.7632192,8.37994286 C16.219031,8.27558835 16.6731355,8.56050079 16.77749,9.0163126 L19.2046205,19.6178164 C19.3089751,20.0736282 19.0240626,20.5277327 18.5682508,20.6320872 C18.112439,20.7364417 17.6583345,20.4515293 17.55398,19.9957175 L15.8041263,12.3525474 L14.0814755,12.3525846 C13.5220179,12.3525846 12.9975265,12.0759164 12.6863282,11.6124971 L12.692477,13.6037594 C13.3624287,14.5188498 13.821526,15.3010443 14.0697689,15.9503428 L14.0833433,15.9862782 C14.3311658,16.6504576 14.6066063,17.8370177 14.909665,19.5459586 C14.909665,20.1580871 14.4096498,20.6526316 13.7907498,20.6526316 C13.1718499,20.6526316 12.9121117,20.2015038 12.6718347,19.5459586 L11.5429368,16.6859008 L8.95894207,14.130178 C8.40647771,13.5837582 8.18269468,12.7952538 8.368015,12.0447912 L9.08132342,9.13977473 C9.37154203,7.96047639 10.5743758,7.24113898 11.7632232,7.53509898 Z M7.81205403,14.4967634 C7.91695233,14.6420142 8.03583706,14.7803483 8.16521163,14.9083074 L9.79967612,16.5219925 L8.70718616,19.8260852 C8.54983872,20.4174636 7.93793199,20.7702156 7.3400117,20.6145897 C6.74209141,20.4589638 6.38543721,19.8537521 6.54278465,19.2623737 L6.54628126,19.2658321 L7.81205403,14.4967634 Z M8.28881105,7.1061875 C8.37827981,7.29092238 8.40008606,7.50119546 8.35042919,7.70035828 L7.47428276,11.2143897 C7.37302061,11.62053 6.96168968,11.8676825 6.5555494,11.7664204 L5.31153539,11.4562529 C4.91264342,11.3567979 4.66577071,10.9574658 4.75510092,10.5561851 L5.2726771,8.23117846 C5.37327588,7.7792782 5.67487779,7.39812856 6.09154588,7.19633246 L7.11775587,6.69932974 C7.5534845,6.48830245 8.07778376,6.67045888 8.28881105,7.1061875 Z M12.1023943,3.28421053 C13.029334,3.28421053 13.7807671,4.02742205 13.7807671,4.94421992 C13.7807671,5.8610178 13.029334,6.60422932 12.1023943,6.60422932 C11.1754547,6.60422932 10.4240216,5.8610178 10.4240216,4.94421992 C10.4240216,4.02742205 11.1754547,3.28421053 12.1023943,3.28421053 Z" id="Shape" fill="#FFFFFF" fill-rule="nonzero"></path>
    </g>
</svg>