<?xml version="1.0" encoding="UTF-8"?>
<svg width="22px" height="16px" viewBox="0 0 22 16" version="1.1" xmlns="http://www.w3.org/2000/svg" xmlns:xlink="http://www.w3.org/1999/xlink">
    <title>viewpoint</title>
    <g id="viewpoint" stroke="none" stroke-width="1" fill="none" fill-rule="evenodd">
        <path d="M13,1 C13.5522847,1 14.0522847,1.22385763 14.4142136,1.58578644 C14.7761424,1.94771525 15,2.44771525 15,3 L18,3 C18.8284271,3 19.5784271,3.33578644 20.1213203,3.87867966 C20.6642136,4.42157288 21,5.17157288 21,6 L21,12 C21,12.8284271 20.6642136,13.5784271 20.1213203,14.1213203 C19.5784271,14.6642136 18.8284271,15 18,15 L4,15 C3.17157288,15 2.42157288,14.6642136 1.87867966,14.1213203 C1.33578644,13.5784271 1,12.8284271 1,12 L1,6 C1,5.17157288 1.33578644,4.42157288 1.87867966,3.87867966 C2.42157288,3.33578644 3.17157288,3 4,3 L7,3 C7,2.44771525 7.22385763,1.94771525 7.58578644,1.58578644 C7.94771525,1.22385763 8.44771525,1 9,1 Z" id="Combined-Shape" stroke="#FFFFFF" stroke-width="2" fill="#333333" stroke-linejoin="round"></path>
        <circle id="Oval" stroke="#FFFFFF" stroke-width="2" cx="11" cy="9" r="3"></circle>
    </g>
</svg>