<?xml version="1.0" encoding="UTF-8"?>
<svg width="20px" height="20px" viewBox="0 0 20 20" version="1.1" xmlns="http://www.w3.org/2000/svg" xmlns:xlink="http://www.w3.org/1999/xlink">
    <title>waterfall</title>
    <g id="waterfall" stroke="none" stroke-width="1" fill="none" fill-rule="evenodd">
        <path d="M4.80277564,13 L6.30277564,14 L8.19722436,13 L9.80277564,13 L11.3027756,14 L13.1972244,13 L14.8026916,13 L16.999,14.4637172 L16.999,19.3671714 L14.1973084,17.5 L12.3027756,18.5 L10.6972244,18.5 L9.19722436,17.5 L7.30277564,18.5 L5.69722436,18.5 L4.19722436,17.5 L1,19.3685171 L1,14.4648162 L3.19722436,13 L4.80277564,13 Z" id="Path-Copy" stroke="#FFFFFF" stroke-width="2" stroke-linejoin="round" fill-rule="nonzero" transform="translate(8.9995, 15.75) scale(1, -1) translate(-8.9995, -15.75)"></path>
        <path d="M18,2 L18,4 L17,4 C15.3431458,4 14,5.34314575 14,7 L14,15 L12,15 L12,7 C12,5.90996431 12.3488086,4.90139724 12.9408969,4.07982774 L13,4 C11.3431458,4 10,5.34314575 10,7 L10,15 L8,15 L8,7 C8,5.90996431 8.34880863,4.90139724 8.94089693,4.07982774 L9,4 C7.34314575,4 6,5.34314575 6,7 L6,15 L4,15 L4,7 C4,4.23857625 6.23857625,2 9,2 L18,2 Z" id="Combined-Shape" fill="#345A74" fill-rule="nonzero"></path>
        <path d="M18,0 C19.1045695,0 20,0.8954305 20,2 L20,4 C20,5.1045695 19.1045695,6 18,6 L17,6 C16.4477153,6 16,6.44771525 16,7 L16,15 C16,16.1045695 15.1045695,17 14,17 L12,17 C11.6485461,17 11.3182653,16.9093469 11.0312649,16.750148 L10.999,16.731 L10.9687351,16.750148 C10.7227348,16.8866042 10.4449366,16.9727002 10.1492623,16.9945143 L10,17 L8,17 C7.64854607,17 7.3182653,16.9093469 7.03126494,16.750148 L6.999,16.731 L6.96873506,16.750148 C6.72273475,16.8866042 6.44493659,16.9727002 6.14926234,16.9945143 L6,17 L4,17 C2.8954305,17 2,16.1045695 2,15 L2,7 C2,3.13400675 5.13400675,0 9,0 L18,0 Z M18,2 L9,2 C6.23857625,2 4,4.23857625 4,7 L4,15 L6,15 L6,7 C6,5.34314575 7.34314575,4 9,4 L8.94089693,4.07982774 C8.34880863,4.90139724 8,5.90996431 8,7 L8,15 L10,15 L10,7 C10,5.34314575 11.3431458,4 13,4 L12.9408969,4.07982774 C12.3488086,4.90139724 12,5.90996431 12,7 L12,15 L14,15 L14,7 C14,5.34314575 15.3431458,4 17,4 L18,4 L18,2 Z" id="Combined-Shape-Copy" fill="#FFFFFF" fill-rule="nonzero"></path>
        <path d="M4.65238782,13.5 L6.15238782,14.5 L6.84961218,14.5 L8.34961218,13.5 L9.65238782,13.5 L11.1523878,14.5 L11.8496122,14.5 L13.3496122,13.5 L14.6523458,13.5 L16.5001071,14.73143 L16.4986264,18.4318367 L14.3486542,16.999 L13.6513878,16.999 L12.1513878,17.999 L10.8486122,17.999 L9.34861218,16.999 L8.65138782,16.999 L7.15138782,17.999 L5.84861218,17.999 L4.34861218,16.999 L3.65138782,16.999 L1.49962601,18.4335079 L1.50110707,14.7323367 L3.34961218,13.5 L4.65238782,13.5 Z" id="Path" stroke="#FFFFFF" fill="#345A74" fill-rule="nonzero" stroke-linejoin="round" transform="translate(9, 15.7495) scale(1, -1) translate(-9, -15.7495)"></path>
    </g>
</svg>