<?xml version="1.0" encoding="UTF-8"?>
<svg width="32px" height="32px" viewBox="0 0 32 32" version="1.1" xmlns="http://www.w3.org/2000/svg" xmlns:xlink="http://www.w3.org/1999/xlink">
    <title>wilderness_preserve</title>
    <g id="wilderness_preserve" stroke="none" stroke-width="1" fill="none" fill-rule="evenodd">
        <rect id="Rectangle" stroke="#FFFFFF" stroke-width="2" fill="#005908" x="1" y="1" width="30" height="30" rx="5.87368441"></rect>
        <g id="Group" transform="translate(16, 14) scale(-1, 1) translate(-16, -14)translate(5, 8)" fill="#FFFFFF">
            <polygon id="Rectangle" points="6 3 12 12 0 12"></polygon>
            <polygon id="Rectangle-Copy-2" points="14.96875 -7.1942452e-14 22 12 7 12"></polygon>
        </g>
        <path d="M15.6826248,19.2508268 C18.6073404,19.2504111 21.4527995,19.4380595 23.5768213,19.7194239 C24.7124214,19.8698543 25.6473565,20.0488276 26.2903733,20.238185 C26.6639153,20.3481867 26.9521434,20.4674308 27.14785,20.5826176 C28.1564085,22.0145406 27.6791385,22.1611768 27.2877131,22.3446447 L27.1996234,22.388239 L27.1580628,22.4116549 C26.9658903,22.5264956 26.6830327,22.6454854 26.317057,22.7552782 C25.6864405,22.9444631 24.7700562,23.1235243 23.6638349,23.2743726 C21.5736981,23.5593913 18.7868784,23.75 16,23.75 C13.2131216,23.75 10.4263019,23.5593913 8.3361651,23.2743726 C7.22994381,23.1235243 6.31355946,22.9444631 5.68294303,22.7552782 C5.31696725,22.6454854 5.03410975,22.5264956 4.8419372,22.4116549 C4.33829481,22.1106825 4.25,21.7636916 4.25,21.5 C4.25,21.2376487 4.33817871,20.8955572 4.82680848,20.5974793 C5.01304892,20.4838674 5.28708778,20.3659066 5.6422739,20.2570529 C6.24917269,20.0710571 7.13204899,19.894338 8.20100472,19.7443249 C10.2263446,19.4600965 12.9396046,19.2650706 15.6826248,19.2508268 Z" id="Rectangle" stroke="#005908" stroke-width="1.5" fill="#FFFFFF"></path>
    </g>
</svg>