<?xml version="1.0" encoding="UTF-8"?>
<svg width="32px" height="32px" viewBox="0 0 32 32" version="1.1" xmlns="http://www.w3.org/2000/svg" xmlns:xlink="http://www.w3.org/1999/xlink">
    <title>wildlife_refuge</title>
    <g id="wildlife_refuge" stroke="none" stroke-width="1" fill="none" fill-rule="evenodd">
        <rect id="Rectangle" stroke="#FFFFFF" stroke-width="2" fill="#005908" x="1" y="1" width="30" height="30" rx="5.87368441"></rect>
        <path d="M18,26.25 L20.5,23.5 L24,25 L21.3127841,21.0670825 C20.6350782,20.0752153 20.4009707,18.8459525 20.6666667,17.6744186 L20.8923758,16.679199 C21.0192842,16.1196211 21.0833333,15.5476256 21.0833333,14.9738372 C21.0833333,14.4015895 20.9962346,13.8326752 20.8250293,13.2866384 L20.7916667,13.1802326 C20.6052804,12.585778 20.1852546,12.0926273 19.6280358,11.8140179 L18,11 L18,11 L18,9.18303115 C18,7.90396537 17.1200646,6.79295637 15.875,6.5 L14.8978999,6.27009409 C14.2116021,6.10861227 13.4986703,6.40212752 13.125,7 C12.7361959,7.6220866 12.0543465,8 11.3207524,8 L8,8 L8,8 L12.5,10.5 L12.6740399,10.8480798 C12.8579711,11.2159421 12.7276719,11.6633968 12.375,11.875 C11.9708439,12.1174937 11.663122,12.4924503 11.5041305,12.9361474 L11.4166667,13.1802326 C11.1998852,13.7852042 11.1777454,14.4428285 11.3533478,15.0610102 L11.4372754,15.3564645 C11.6441993,16.0849091 11.9755459,16.7720796 12.4166667,17.3875969 C12.853165,17.9966643 13.4445554,18.4779642 14.129588,18.7816487 L14.4166667,18.9089147 C15.3002173,19.3006051 16.1177245,19.8268662 16.8400804,20.4689604 L16.875,20.5 C17.5905797,21.1360708 18,22.047786 18,23.0051993 L18,26.25 L18,26.25 Z" id="Path-4" fill="#FFFFFF" transform="translate(16, 16.125) scale(-1, 1) translate(-16, -16.125)"></path>
    </g>
</svg>