<?xml version="1.0" encoding="UTF-8" standalone="no"?>
<!DOCTYPE svg PUBLIC "-//W3C//DTD SVG 1.1//EN" "http://www.w3.org/Graphics/SVG/1.1/DTD/svg11.dtd">
<svg width="100%" height="100%" viewBox="0 0 526 526" version="1.1" xmlns="http://www.w3.org/2000/svg" xmlns:xlink="http://www.w3.org/1999/xlink" xml:space="preserve" xmlns:serif="http://www.serif.com/" style="fill-rule:evenodd;clip-rule:evenodd;stroke-linejoin:round;stroke-miterlimit:2;">
    <path id="Fill" d="M54.784,128.582L19.593,18.206L128.014,54.496L241.279,14.619L355.299,56.287L468.779,15.291L512.958,124.714L471.129,240.034L511.603,352.824L472.461,466.772L357.821,513.566L240.701,469.111L128.705,514.425L16.233,471.532L56.253,357.717L13.881,240.724L54.784,128.582Z" style="fill:rgb(74,40,42);"/>
    <path d="M17.713,0.883L126.968,42.532L236.225,0.883C239.095,-0.211 242.256,-0.252 245.147,0.759L245.508,0.891L354.844,42.793L463.705,0.898C470.314,-1.646 477.721,1.57 480.397,8.085L480.513,8.379L524.221,122.457C525.369,125.451 525.369,128.765 524.221,131.759L482.3,241.172L524.213,349.984C525.315,352.845 525.369,355.999 524.373,358.89L524.243,359.25L480.831,474.194C479.517,477.674 476.775,480.424 473.299,481.748L359.343,525.178C356.361,526.314 353.066,526.314 350.084,525.178L240.758,483.512L131.432,525.178C128.54,526.28 125.354,526.313 122.446,525.279L122.084,525.144L10.346,481.62L10.063,481.552C3.882,479.973 -1.151,474.003 0.23,466.714L0.237,466.684L0.241,466.651C0.43,465.471 0.786,464.305 1.317,463.186L1.401,463.014L42.557,354.91L0.933,245.577C-0.156,242.717 -0.2,239.569 0.802,236.685L0.933,236.326L42.557,126.991L0.933,17.656C-3.061,7.165 7.224,-3.115 17.713,0.883ZM240.843,26.947L131.599,68.592C128.617,69.729 125.321,69.729 122.338,68.592L35.549,35.506L68.617,122.366C69.706,125.226 69.75,128.375 68.748,131.258L68.617,131.617L26.992,240.951L68.617,350.286C69.706,353.146 69.75,356.295 68.748,359.178L68.617,359.537L29.866,461.32L126.853,499.098L236.129,457.453C238.991,456.362 242.143,456.318 245.029,457.322L245.388,457.453L354.713,499.118L458.574,459.535L498.168,354.702L456.243,245.858C455.133,242.978 455.086,239.802 456.102,236.896L456.234,236.535L498.16,127.107L460.892,29.838L359.524,68.852C356.644,69.96 353.469,70.007 350.564,68.991L350.202,68.859L240.843,26.947ZM88.265,428.742L126.641,443.538C133.34,446.121 136.677,453.645 134.095,460.344C131.512,467.043 123.987,470.38 117.288,467.797L78.912,453.001C72.213,450.419 68.876,442.894 71.459,436.195C74.041,429.496 81.566,426.159 88.265,428.742ZM287.481,418.166L323.815,431.873L328.649,433.696C335.367,436.23 338.758,443.73 336.224,450.448C333.69,457.165 326.19,460.557 319.473,458.023L314.638,456.199L278.304,442.493C271.587,439.959 268.195,432.459 270.729,425.741C273.263,419.024 280.763,415.632 287.481,418.166ZM437.274,423.494C439.808,430.212 436.416,437.712 429.699,440.246L388.53,455.776C381.813,458.31 374.313,454.918 371.779,448.201C369.245,441.483 372.636,433.983 379.354,431.449L420.522,415.919C427.239,413.385 434.739,416.777 437.274,423.494ZM235.175,413.679C237.709,420.397 234.318,427.897 227.6,430.431L186.432,445.961C179.714,448.495 172.214,445.103 169.68,438.386C167.146,431.668 170.537,424.168 177.255,421.634L218.423,406.104C225.141,403.57 232.641,406.962 235.175,413.679ZM251.327,170.336C261.846,172.964 271.037,179.316 277.016,188.242L292.739,211.568L307.285,211.567L304.585,199.772C302.933,192.555 307.444,185.365 314.661,183.713C321.878,182.06 329.068,186.572 330.72,193.789L369.15,361.646C370.802,368.863 366.291,376.053 359.074,377.705C351.857,379.357 344.667,374.846 343.014,367.629L315.308,246.612L288.033,246.613C279.175,246.613 270.871,242.232 265.943,234.895L266.041,266.423C276.648,280.912 283.917,293.297 287.848,303.577L288.063,304.146C291.986,314.663 296.348,333.45 301.146,360.508C301.146,370.2 293.229,378.03 283.43,378.03C273.631,378.03 269.518,370.887 265.714,360.508L247.84,315.224L206.926,274.758C198.179,266.107 194.636,253.622 197.57,241.74L208.864,195.743C213.459,177.071 232.504,165.682 251.327,170.336ZM188.767,280.562C190.428,282.862 192.31,285.053 194.359,287.079L220.238,312.629L202.94,364.943C200.449,374.307 190.76,379.892 181.293,377.428C171.826,374.964 166.179,365.381 168.67,356.018L168.726,356.073L188.767,280.562ZM196.316,163.545C197.732,166.47 198.078,169.799 197.291,172.953L183.419,228.591C181.816,235.022 175.303,238.935 168.873,237.332L149.176,232.421C142.86,230.846 138.951,224.524 140.365,218.17L148.56,181.357C150.153,174.202 154.929,168.167 161.526,164.972L177.774,157.103C184.673,153.762 192.975,156.646 196.316,163.545ZM256.698,103.03C271.374,103.03 283.272,114.798 283.272,129.314C283.272,143.83 271.374,155.597 256.698,155.597C242.021,155.597 230.123,143.83 230.123,129.314C230.123,114.798 242.021,103.03 256.698,103.03Z" style="fill:rgb(255,226,168);fill-rule:nonzero;"/>
</svg>
