<?xml version="1.0" encoding="UTF-8"?>
<svg width="526px" height="526px" viewBox="0 0 526 526" version="1.1" xmlns="http://www.w3.org/2000/svg" xmlns:xlink="http://www.w3.org/1999/xlink">
    <path d="M17.7125864,0.883023497 L126.967928,42.5323279 L236.224635,0.883027946 C239.094902,-0.211145652 242.255769,-0.252211277 245.14749,0.759334673 L245.507513,0.891260233 L354.843928,42.7933279 L463.704565,0.897837528 C470.313612,-1.64573302 477.720608,1.57034226 480.396726,8.08526775 L480.513372,8.37917727 L524.221401,122.456847 C525.368771,125.451475 525.368771,128.764521 524.221401,131.759148 L482.299928,241.172328 L524.213077,349.983725 C525.31507,352.844619 525.369112,355.99883 524.373378,358.88979 L524.243443,359.249748 L480.830911,474.193882 C479.516668,477.673625 476.774797,480.423721 473.299006,481.748379 L359.343298,525.178032 C356.361491,526.314428 353.065873,526.314427 350.084067,525.178028 L240.757928,483.512328 L131.432146,525.178032 C128.540196,526.280182 125.354143,526.313035 122.44617,525.278683 L122.084163,525.143831 L10.3459282,481.620328 L10.0631079,481.552489 C3.88211489,479.972515 -1.15091727,474.002936 0.230043432,466.71385 L0.236928246,466.684328 L0.240934369,466.650905 C0.430331864,465.471243 0.786009189,464.304844 1.31678061,463.186445 L1.40092825,463.014328 L42.5569282,354.910328 L0.932627824,245.577266 C-0.156265264,242.717138 -0.199823339,239.568625 0.801954026,236.685425 L0.932620652,236.326447 L42.5569282,126.991328 L0.932608906,17.655697 C-3.06129067,7.16503998 7.22366922,-3.11544307 17.7125864,0.883023497 Z M240.842928,26.9473279 L131.599451,68.5922877 C128.61702,69.7292196 125.320555,69.7292211 122.338123,68.5922922 L35.5489282,35.5063279 L68.6174306,122.366154 C69.7063057,125.226269 69.7498569,128.374763 68.7480847,131.257947 L68.6174188,131.616923 L26.9919282,240.951328 L68.6174117,350.286221 C69.7063151,353.146376 69.7498633,356.294921 68.7480577,359.178142 L68.6173874,359.537123 L29.8659282,461.320328 L126.852928,499.098328 L236.128654,457.452971 C238.991188,456.362031 242.142931,456.318395 245.028601,457.322062 L245.387884,457.452976 L354.712928,499.118328 L458.573928,459.535328 L498.167928,354.702328 L456.24275,245.858485 C455.133383,242.978445 455.086275,239.801848 456.101934,236.896263 L456.234426,236.534517 L498.159928,127.107328 L460.891928,29.8383279 L359.523768,68.8521387 C356.644213,69.9603698 353.468542,70.0068585 350.56386,68.9912047 L350.202227,68.858716 L240.842928,26.9473279 Z M88.2648251,428.742032 L126.641347,443.53793 C133.3404,446.12072 136.67729,453.645141 134.0945,460.344194 C131.51171,467.043247 123.987289,470.380137 117.288236,467.797347 L78.9117143,453.001449 C72.2126612,450.418659 68.8757709,442.894238 71.4585611,436.195185 C74.0413514,429.496132 81.565772,426.159242 88.2648251,428.742032 Z M287.480984,418.166248 L323.815065,431.8725 L328.649226,433.696084 C335.366856,436.230166 338.758292,443.730159 336.22421,450.447789 C333.690128,457.165419 326.190135,460.556854 319.472505,458.022773 L314.638344,456.199189 L278.304263,442.492937 C271.586633,439.958855 268.195197,432.458861 270.729279,425.741232 C273.26336,419.023602 280.763354,415.632166 287.480984,418.166248 Z M437.273559,423.494249 C439.807635,430.211881 436.416193,437.711872 429.698562,440.245948 L388.530307,455.77575 C381.812675,458.309826 374.312684,454.918384 371.778608,448.200753 C369.244532,441.483121 372.635973,433.98313 379.353605,431.449054 L420.52186,415.919251 C427.239492,413.385175 434.739483,416.776617 437.273559,423.494249 Z M235.174887,413.679227 C237.708963,420.396859 234.31752,427.89685 227.599889,430.430925 L186.431632,445.960725 C179.714001,448.494801 172.21401,445.103359 169.679934,438.385727 C167.145858,431.668095 170.537301,424.168104 177.254932,421.634028 L218.423189,406.104229 C225.14082,403.570153 232.640811,406.961595 235.174887,413.679227 Z M251.327375,170.336062 C261.846343,172.96441 271.036599,179.316251 277.015802,188.241684 L292.738891,211.568274 L307.285341,211.567328 L304.58479,199.772045 C302.932511,192.555025 307.443624,185.365036 314.660645,183.712757 C321.877665,182.060477 329.067653,186.57159 330.719933,193.788611 L369.1495,361.645754 C370.801779,368.862774 366.290666,376.052762 359.073645,377.705042 C351.856625,379.357322 344.666637,374.846208 343.014357,367.629188 L315.308341,246.612328 L288.033037,246.612917 C279.174958,246.612917 270.87051,242.232337 265.943204,234.894865 L266.04056,266.423185 C276.648129,280.912117 283.91717,293.296862 287.847682,303.577422 L288.062609,304.146399 C291.986465,314.662573 296.347608,333.449775 301.146037,360.508006 C301.146037,370.200041 293.229129,378.030328 283.42988,378.030328 C273.630631,378.030328 269.518109,370.887471 265.713723,360.508006 L247.839506,315.223757 L206.926257,274.758146 C198.178905,266.1065 194.635673,253.621846 197.569912,241.739522 L208.863962,195.743428 C213.45909,177.071204 232.503958,165.681695 251.327375,170.336062 Z M188.767196,280.562415 C190.428086,282.86222 192.310428,285.05251 194.358858,287.078528 L220.237879,312.628542 L202.940122,364.943344 C200.448787,374.306835 190.760264,379.892075 181.293193,377.427998 C171.826122,374.963922 166.179097,365.381402 168.670431,356.017912 L168.725794,356.072669 L188.767196,280.562415 Z M196.315849,163.544963 C197.732438,166.469932 198.077703,169.799256 197.29147,172.952667 L183.419151,228.591498 C181.815834,235.022052 175.303094,238.935301 168.87254,237.331984 L149.175651,232.420998 C142.859862,230.846295 138.951044,224.523536 140.365439,218.169925 L148.560395,181.35732 C150.153209,174.202233 154.928573,168.167363 161.525817,164.972259 L177.774142,157.103049 C184.673179,153.761783 192.974584,156.645927 196.315849,163.544963 Z M256.697585,103.030328 C271.374129,103.030328 283.27182,114.797844 283.27182,129.31381 C283.27182,143.829776 271.374129,155.597292 256.697585,155.597292 C242.02104,155.597292 230.12335,143.829776 230.12335,129.31381 C230.12335,114.797844 242.02104,103.030328 256.697585,103.030328 Z" fill="#4A282A" fill-rule="nonzero"></path>
</svg>